<svg xmlns="http://www.w3.org/2000/svg" width="251.314" height="44.2" viewBox="0 0 251.314 44.2"><g transform="translate(-8.6 -489.1)"><path d="M100.52,636.114H9.236a.631.631,0,0,1-.636-.636v-9.143a.631.631,0,0,1,.636-.635H100.52a.631.631,0,0,1,.636.635v9.143A.647.647,0,0,1,100.52,636.114Z" transform="translate(0 -103.206)" fill="#1292fd"/><g transform="translate(9.04 489.1)"><path d="M27.537,505.31H16.267v7.627H29.493v4.718H10.4V489.2H29.444v4.743H16.267v6.8h11.27Z" transform="translate(-10.4 -489.176)" fill="#1292fd"/><path d="M140.2,517.656V489.2h8.752a13.393,13.393,0,0,1,6.723,1.687,11.706,11.706,0,0,1,4.62,4.816,14.948,14.948,0,0,1,1.662,7.09v1.32a14.77,14.77,0,0,1-1.638,7.065,11.735,11.735,0,0,1-4.6,4.792,13.382,13.382,0,0,1-6.7,1.711H140.2Zm5.867-23.714v19.02H148.9a6.361,6.361,0,0,0,5.256-2.249c1.222-1.491,1.834-3.643,1.858-6.43v-1.516c0-2.885-.611-5.085-1.809-6.576a6.361,6.361,0,0,0-5.256-2.249Z" transform="translate(-108.468 -489.176)" fill="#1292fd"/><path d="M305.031,489.124v18.751a9.576,9.576,0,0,1-2.934,7.383,13.166,13.166,0,0,1-15.915.073,9.388,9.388,0,0,1-2.983-7.261V489.1h5.867v18.8a5.406,5.406,0,0,0,1.345,4.083,5.156,5.156,0,0,0,3.716,1.271c3.3,0,4.963-1.736,5.036-5.207V489.1h5.867Z" transform="translate(-216.509 -489.1)" fill="#1292fd"/></g><g transform="translate(105.214 504.037)"><path d="M403.8,580.356V551.9h8.752a13.393,13.393,0,0,1,6.723,1.687,11.706,11.706,0,0,1,4.62,4.816,14.948,14.948,0,0,1,1.662,7.09v1.32a14.77,14.77,0,0,1-1.638,7.065,11.735,11.735,0,0,1-4.6,4.792,13.384,13.384,0,0,1-6.7,1.711H403.8Zm5.843-23.714v19.02h2.836a6.361,6.361,0,0,0,5.256-2.249c1.222-1.491,1.834-3.643,1.858-6.43v-1.516c0-2.885-.611-5.085-1.809-6.576a6.361,6.361,0,0,0-5.256-2.249Z" transform="translate(-403.8 -551.484)" fill="#1292fd"/><path d="M565.037,568.035h-11.27v7.628h13.226v4.718H547.9V551.9h19.044v4.743H553.767v6.8h11.27Z" transform="translate(-512.672 -551.484)" fill="#1292fd"/><path d="M686.382,574.413H676.09l-1.956,5.867H667.9L678.51,551.8h5.427L694.6,580.281h-6.234Zm-8.7-4.743h7.114l-3.569-10.659Z" transform="translate(-603.336 -551.409)" fill="#1292fd"/><path d="M831.467,575.662h12.468v4.718H825.6V551.9h5.867Z" transform="translate(-722.483 -551.484)" fill="#1292fd"/><path d="M963.064,571.615a2.994,2.994,0,0,0-1.174-2.543,15.742,15.742,0,0,0-4.229-1.882,28.879,28.879,0,0,1-4.84-1.956c-3.227-1.736-4.841-4.107-4.841-7.065a6.9,6.9,0,0,1,1.3-4.107,8.473,8.473,0,0,1,3.74-2.836,13.929,13.929,0,0,1,5.476-1.027,12.811,12.811,0,0,1,5.427,1.1,8.682,8.682,0,0,1,3.716,3.129,8.143,8.143,0,0,1,1.32,4.572h-5.867a3.851,3.851,0,0,0-1.222-3.031,5.049,5.049,0,0,0-3.471-1.076,5.4,5.4,0,0,0-3.349.9,2.836,2.836,0,0,0-1.2,2.4,2.72,2.72,0,0,0,1.394,2.323,15.074,15.074,0,0,0,4.107,1.76c3.349,1,5.769,2.249,7.285,3.74a7.506,7.506,0,0,1,2.3,5.549,6.836,6.836,0,0,1-2.787,5.794,12.287,12.287,0,0,1-7.53,2.1,14.482,14.482,0,0,1-5.99-1.2,9.346,9.346,0,0,1-4.107-3.3,8.355,8.355,0,0,1-1.418-4.84h5.892c0,3.154,1.882,4.718,5.623,4.718a5.55,5.55,0,0,0,3.276-.856A2.771,2.771,0,0,0,963.064,571.615Z" transform="translate(-814.28 -550.2)" fill="#1292fd"/></g><path d="M545.174,499.514H387.784a.683.683,0,0,1-.685-.685v-9.045a.683.683,0,0,1,.685-.685H545.2a.683.683,0,0,1,.685.685v9.045A.722.722,0,0,1,545.174,499.514Z" transform="translate(-285.968 0)" fill="#707070"/><g transform="translate(111.179 492.4)"><path d="M428.2,507.178V502.9h1.32a1.966,1.966,0,0,1,1,.244,1.658,1.658,0,0,1,.685.733,2.489,2.489,0,0,1,.244,1.076v.2a2.089,2.089,0,0,1-.244,1.051,1.741,1.741,0,0,1-.685.709,1.982,1.982,0,0,1-1,.269Zm.88-3.569v2.86h.416a.947.947,0,0,0,.782-.342,1.555,1.555,0,0,0,.269-.978v-.22a1.555,1.555,0,0,0-.269-.978.947.947,0,0,0-.782-.342Z" transform="translate(-428.2 -502.827)" fill="#fff"/><path d="M466.78,507.178h-.88V502.9h.88Z" transform="translate(-456.684 -502.827)" fill="#fff"/><path d="M496,505.9a.456.456,0,0,0-.171-.391,1.939,1.939,0,0,0-.636-.293,4.536,4.536,0,0,1-.733-.293,1.185,1.185,0,0,1-.733-1.051,1.07,1.07,0,0,1,.2-.611,1.258,1.258,0,0,1,.562-.416,2.193,2.193,0,0,1,.831-.147,1.641,1.641,0,0,1,.807.171,1.736,1.736,0,0,1,.562.464,1.314,1.314,0,0,1,.2.685H496a.626.626,0,0,0-.2-.464.909.909,0,0,0-1.027-.024.44.44,0,0,0-.171.367.4.4,0,0,0,.22.342,2.98,2.98,0,0,0,.611.269,2.7,2.7,0,0,1,1.1.562,1.164,1.164,0,0,1,.342.831,1.09,1.09,0,0,1-.416.88,1.757,1.757,0,0,1-1.125.318,2.209,2.209,0,0,1-.9-.171,1.394,1.394,0,0,1-.611-.489,1.293,1.293,0,0,1-.22-.733h.88c0,.464.293.709.856.709a.9.9,0,0,0,.489-.122A.532.532,0,0,0,496,505.9Z" transform="translate(-477.612 -502.676)" fill="#fff"/><path d="M533.8,505.534a1.474,1.474,0,0,1-.513,1.1,1.793,1.793,0,0,1-1.222.391,1.646,1.646,0,0,1-1.3-.562,2.248,2.248,0,0,1-.465-1.516v-.269a2.6,2.6,0,0,1,.22-1.1,1.651,1.651,0,0,1,.611-.733,1.7,1.7,0,0,1,.929-.244,1.769,1.769,0,0,1,1.2.391,1.677,1.677,0,0,1,.513,1.125h-.856a1,1,0,0,0-.22-.611.871.871,0,0,0-.611-.2.731.731,0,0,0-.66.318,1.754,1.754,0,0,0-.22.978v.318a1.884,1.884,0,0,0,.22,1.027.731.731,0,0,0,.66.318.915.915,0,0,0,.611-.2.722.722,0,0,0,.22-.587h.88Z" transform="translate(-505.34 -502.6)" fill="#fff"/><path d="M571.542,504.922a2.6,2.6,0,0,1-.22,1.1,1.7,1.7,0,0,1-.636.733,1.744,1.744,0,0,1-.953.269,1.789,1.789,0,0,1-.953-.244,1.556,1.556,0,0,1-.636-.733,3.033,3.033,0,0,1-.244-1.1v-.22a2.8,2.8,0,0,1,.22-1.125,1.7,1.7,0,0,1,.636-.733,1.825,1.825,0,0,1,1.907,0,1.7,1.7,0,0,1,.636.733,2.6,2.6,0,0,1,.22,1.1v.22Zm-.9-.2a1.774,1.774,0,0,0-.244-1.027.766.766,0,0,0-.685-.342.823.823,0,0,0-.685.342,1.641,1.641,0,0,0-.245,1v.22a1.774,1.774,0,0,0,.245,1.027.787.787,0,0,0,.685.367.823.823,0,0,0,.685-.342,1.675,1.675,0,0,0,.244-1.027Z" transform="translate(-533.748 -502.6)" fill="#fff"/><path d="M609.976,502.824v2.811a1.418,1.418,0,0,1-.44,1.1,1.7,1.7,0,0,1-1.2.416,1.727,1.727,0,0,1-1.2-.391,1.418,1.418,0,0,1-.44-1.1V502.8h.88v2.836a.871.871,0,0,0,.2.611.782.782,0,0,0,.562.2.691.691,0,0,0,.758-.782V502.8h.88Z" transform="translate(-563.062 -502.751)" fill="#fff"/><path d="M648.071,507.178h-.88l-1.711-2.811v2.811h-.88V502.9h.88l1.711,2.811V502.9h.88Z" transform="translate(-591.697 -502.827)" fill="#fff"/><path d="M685.7,503.609h-1.32v3.569h-.88v-3.569h-1.3V502.9h3.5Z" transform="translate(-620.105 -502.827)" fill="#fff"/><path d="M750.5,505.534a1.473,1.473,0,0,1-.513,1.1,1.793,1.793,0,0,1-1.222.391,1.647,1.647,0,0,1-1.3-.562,2.248,2.248,0,0,1-.464-1.516v-.269a2.6,2.6,0,0,1,.22-1.1,1.652,1.652,0,0,1,.611-.733,1.7,1.7,0,0,1,.929-.244,1.769,1.769,0,0,1,1.2.391,1.677,1.677,0,0,1,.513,1.125h-.88a1,1,0,0,0-.22-.611.871.871,0,0,0-.611-.2.731.731,0,0,0-.66.318,1.754,1.754,0,0,0-.22.978v.318a1.885,1.885,0,0,0,.22,1.027.731.731,0,0,0,.66.318.915.915,0,0,0,.611-.2.81.81,0,0,0,.22-.587h.9Z" transform="translate(-669.063 -502.6)" fill="#fff"/><path d="M788.242,504.922a2.6,2.6,0,0,1-.22,1.1,1.7,1.7,0,0,1-.635.733,1.744,1.744,0,0,1-.953.269,1.789,1.789,0,0,1-.953-.244,1.555,1.555,0,0,1-.636-.733,3.031,3.031,0,0,1-.245-1.1v-.22a2.8,2.8,0,0,1,.22-1.125,1.7,1.7,0,0,1,.636-.733,1.825,1.825,0,0,1,1.907,0,1.7,1.7,0,0,1,.636.733,2.6,2.6,0,0,1,.22,1.1v.22Zm-.88-.2a1.775,1.775,0,0,0-.244-1.027.765.765,0,0,0-.685-.342.824.824,0,0,0-.685.342,1.642,1.642,0,0,0-.244,1v.22a1.775,1.775,0,0,0,.244,1.027.787.787,0,0,0,.685.367.823.823,0,0,0,.685-.342,1.676,1.676,0,0,0,.244-1.027Z" transform="translate(-697.471 -502.6)" fill="#fff"/><path d="M826.776,502.824v2.811a1.418,1.418,0,0,1-.44,1.1,1.7,1.7,0,0,1-1.2.416,1.727,1.727,0,0,1-1.2-.391,1.419,1.419,0,0,1-.44-1.1V502.8h.88v2.836a.871.871,0,0,0,.2.611.782.782,0,0,0,.562.2.691.691,0,0,0,.758-.782V502.8h.88Z" transform="translate(-726.861 -502.751)" fill="#fff"/><path d="M862.18,505.762v1.516h-.88V503h1.662a1.913,1.913,0,0,1,.856.171,1.278,1.278,0,0,1,.562.513,1.493,1.493,0,0,1,.2.733,1.246,1.246,0,0,1-.44,1,1.8,1.8,0,0,1-1.2.367h-.758Zm0-.733h.782a.713.713,0,0,0,.538-.171.588.588,0,0,0,.2-.464.671.671,0,0,0-.709-.709h-.807Z" transform="translate(-755.421 -502.902)" fill="#fff"/><path d="M901.743,504.922a2.6,2.6,0,0,1-.22,1.1,1.7,1.7,0,0,1-.636.733,1.744,1.744,0,0,1-.953.269,1.789,1.789,0,0,1-.953-.244,1.556,1.556,0,0,1-.636-.733,3.036,3.036,0,0,1-.245-1.1v-.22a2.8,2.8,0,0,1,.22-1.125,1.7,1.7,0,0,1,.635-.733,1.825,1.825,0,0,1,1.907,0,1.7,1.7,0,0,1,.636.733,2.6,2.6,0,0,1,.22,1.1v.22Zm-.9-.2a1.775,1.775,0,0,0-.244-1.027.766.766,0,0,0-.685-.342.823.823,0,0,0-.684.342,1.641,1.641,0,0,0-.245,1v.22a1.774,1.774,0,0,0,.245,1.027.787.787,0,0,0,.684.367.824.824,0,0,0,.685-.342,1.676,1.676,0,0,0,.244-1.027Z" transform="translate(-783.224 -502.6)" fill="#fff"/><path d="M940.5,507.178h-.88l-1.711-2.811v2.811H937V502.9h.88l1.711,2.811V502.9h.88v4.278Z" transform="translate(-812.614 -502.827)" fill="#fff"/><path d="M977.571,505.9a.456.456,0,0,0-.171-.391,1.938,1.938,0,0,0-.635-.293,4.534,4.534,0,0,1-.733-.293,1.185,1.185,0,0,1-.734-1.051,1.07,1.07,0,0,1,.2-.611,1.259,1.259,0,0,1,.562-.416,2.194,2.194,0,0,1,.831-.147,1.641,1.641,0,0,1,.807.171,1.514,1.514,0,0,1,.562.464,1.314,1.314,0,0,1,.2.685H977.6a.626.626,0,0,0-.2-.464.909.909,0,0,0-1.027-.024.44.44,0,0,0-.171.367.4.4,0,0,0,.22.342,2.984,2.984,0,0,0,.611.269,2.705,2.705,0,0,1,1.1.562,1.164,1.164,0,0,1,.342.831,1.09,1.09,0,0,1-.416.88,1.757,1.757,0,0,1-1.125.318,2.209,2.209,0,0,1-.9-.171,1.393,1.393,0,0,1-.611-.489,1.293,1.293,0,0,1-.22-.733h.88c0,.464.293.709.856.709a.9.9,0,0,0,.489-.122A.516.516,0,0,0,977.571,505.9Z" transform="translate(-841.475 -502.676)" fill="#fff"/></g></g></svg>